HIERARCHY
ROOT Hips
{
  OFFSET 13.6774 106.653 -34.4427
  CHANNELS 6 Xposition Yposition Zposition Zrotation Xrotation Yrotation
  JOINT ToSpine
  {
    OFFSET -2.69724 7.43032 -0.144315
    CHANNELS 3 Zrotation Xrotation Yrotation
    JOINT Spine
    {
      OFFSET -0.0310711 10.7595 1.96963
      CHANNELS 3 Zrotation Xrotation Yrotation
      JOINT Spine1
      {
        OFFSET 19.9056 3.91189 0.764692
        CHANNELS 3 Zrotation Xrotation Yrotation
        JOINT Neck
        {
          OFFSET 25.9749 7.03908 -0.130764
          CHANNELS 3 Zrotation Xrotation Yrotation
          JOINT Head
          {
            OFFSET 9.52751 0.295786 -0.907742
            CHANNELS 3 Zrotation Xrotation Yrotation
            End Site
            {
              OFFSET 16.4037 0.713936 2.7358
            }
          }
        }
        JOINT LeftShoulder
        {
          OFFSET 17.7449 4.33886 11.7777
          CHANNELS 3 Zrotation Xrotation Yrotation
          JOINT LeftArm
          {
            OFFSET 0.911315 1.27913 9.80584
            CHANNELS 3 Zrotation Xrotation Yrotation
            JOINT LeftForeArm
            {
              OFFSET 28.6126 1.18197 -3.53199
              CHANNELS 3 Zrotation Xrotation Yrotation
              JOINT LeftHand
              {
                OFFSET 27.5088 0.0218783 0.327423
                CHANNELS 3 Zrotation Xrotation Yrotation
                End Site
                {
                  OFFSET 18.6038 -0.000155887 0.382096
                }
              }
            }
          }
        }
        JOINT RightShoulder
        {
          OFFSET 17.1009 2.89543 -12.2328
          CHANNELS 3 Zrotation Xrotation Yrotation
          JOINT RightArm
          {
            OFFSET 1.4228 0.178766 -10.211
            CHANNELS 3 Zrotation Xrotation Yrotation
            JOINT RightForeArm
            {
              OFFSET 28.733 1.87905 2.64907
              CHANNELS 3 Zrotation Xrotation Yrotation
              JOINT RightHand
              {
                OFFSET 27.4588 0.290562 -0.101845
                CHANNELS 3 Zrotation Xrotation Yrotation
                End Site
                {
                  OFFSET 17.8396 -0.255518 -0.000602873
                }
              }
            }
          }
        }
      }
    }
  }
  JOINT LeftUpLeg
  {
    OFFSET -5.61296 -2.22332 -10.2353
    CHANNELS 3 Zrotation Xrotation Yrotation
    JOINT LeftLeg
    {
      OFFSET 2.56703 -44.7417 -7.93097
      CHANNELS 3 Zrotation Xrotation Yrotation
      JOINT LeftFoot
      {
        OFFSET 3.16933 -46.5642 -3.96578
        CHANNELS 3 Zrotation Xrotation Yrotation
        JOINT LeftToeBase
        {
          OFFSET 0.346054 -6.02161 12.8035
          CHANNELS 3 Zrotation Xrotation Yrotation
          End Site
          {
            OFFSET 0.134235 -1.35082 5.13018
          }
        }
      }
    }
  }
  JOINT RightUpLeg
  {
    OFFSET -5.7928 -1.72406 10.6446
    CHANNELS 3 Zrotation Xrotation Yrotation
    JOINT RightLeg
    {
      OFFSET -2.57161 -44.7178 -7.85259
      CHANNELS 3 Zrotation Xrotation Yrotation
      JOINT RightFoot
      {
        OFFSET -3.10148 -46.5936 -4.03391
        CHANNELS 3 Zrotation Xrotation Yrotation
        JOINT RightToeBase
        {
          OFFSET -0.0828122 -6.13587 12.8035
          CHANNELS 3 Zrotation Xrotation Yrotation
          End Site
          {
            OFFSET -0.131328 -1.35082 5.13018
          }
        }
      }
    }
  }
}
MOTION
Frames: 15
Frame Time: 0.03333333333333333
0.0000 93.1000 0.0000 -18.2853 3.1129 -10.5660 -70.9754 -0.0212 88.0116 95.1505 68.1501 -4.8319 -3.8776 18.9945 -1.8804 -176.7085 43.9753 161.9059 -166.8208 82.7857 -165.3801 1.1452 -9.9989 -22.9314 -125.5331 -16.3524 -35.1198 14.4729 -15.0948 -132.7075 0.2928 -0.0549 -0.1443 -2.0111 7.1977 41.2602 -123.8032 15.6708 57.1549 19.8668 18.1107 129.3835 0.0810 -0.0658 0.1765 -49.0475 -3.8938 86.8839 -4.6282 37.9072 -23.6375 -4.1219 -3.2530 -0.8015 23.3381 -42.6273 6.2787 -50.0853 3.9534 95.8847 0.1369 34.1159 11.0626 -3.1899 -0.3718 -0.1106 6.7953 -40.4347 10.4082 
0.0000 93.1000 0.0000 -18.0369 3.2887 -10.4684 -70.9679 -0.0569 88.0033 94.7270 68.1040 -3.7125 -4.0716 19.1242 -2.0184 -175.9626 44.0970 161.4184 -159.8548 82.2929 -169.5370 1.3736 -10.0784 -23.0277 -125.6622 -15.2180 -34.8543 14.3266 -15.1218 -132.7199 -0.0849 -0.2281 0.1141 -2.1339 6.9343 41.0314 -124.3441 15.7397 57.1882 19.8736 18.2674 129.6095 0.4201 -0.2682 0.2204 -48.6695 -4.1908 86.6742 -4.8552 37.4713 -22.8554 -4.0603 -3.2839 -0.7159 24.1211 -42.5949 7.6841 -50.1109 3.9440 96.1913 0.9776 34.0179 11.4501 -3.4634 -0.6097 -0.1341 6.9211 -39.7468 8.9454 
0.0000 93.1000 0.0000 -17.6956 3.3552 -11.0499 -70.9748 0.0617 88.0081 94.6497 68.2976 -3.9933 -3.9225 19.4729 -1.9067 -175.7990 44.1497 162.2176 -164.0313 82.6227 -165.2558 0.7563 -10.0776 -22.9511 -125.8725 -15.2346 -34.9226 15.4352 -15.0400 -132.5059 0.3013 0.3551 -0.4268 -2.1764 6.7774 41.1366 -125.0493 16.1662 57.0171 20.2556 18.0267 129.4901 -0.2337 0.3701 -0.5472 -48.8391 -3.9216 86.6707 -4.4737 36.6698 -23.2261 -3.3053 -3.9517 -1.4374 24.0366 -42.5776 8.7185 -50.0137 4.1471 96.3096 1.2051 34.1918 10.1261 -3.9012 0.5292 0.1102 6.9618 -42.1977 8.6414 
0.0000 93.1000 0.0000 -17.6891 3.0810 -10.9864 -70.9725 0.0067 88.0034 94.3755 68.1561 -3.8093 -4.1075 19.1904 -1.7576 -175.7669 44.0156 162.1195 -166.8623 82.6388 -160.7737 0.9830 -10.1424 -22.9815 -125.8173 -16.1059 -34.6257 14.4530 -15.3003 -132.3030 0.1467 0.1444 0.0244 -2.2576 6.7529 41.0924 -124.1614 16.3641 56.7936 19.7072 18.3153 129.4888 0.1071 0.1461 -0.2692 -48.6130 -4.1097 86.8621 -4.0094 37.3503 -23.8047 -3.7284 -4.1316 -1.1431 23.7723 -42.9195 7.0214 -50.1228 3.9488 95.9257 1.2234 34.3515 10.3431 -2.8628 -0.2837 -0.1086 7.0589 -40.9889 9.8326 
0.0000 93.1000 0.0000 -17.9848 3.3934 -12.4057 -70.9791 -0.0099 88.0059 94.6605 68.3890 -4.0507 -4.2781 19.0282 -1.8261 -175.4521 43.9854 160.8410 -166.7521 82.3131 -161.2323 1.1206 -9.8868 -23.0151 -126.1359 -16.3498 -34.7086 14.4445 -14.8915 -132.1370 0.0633 0.0615 0.2469 -2.3715 6.8270 41.3028 -125.0906 16.3599 56.9384 19.6559 18.0803 129.4964 0.0130 0.0595 -0.1428 -48.6565 -4.0069 86.9738 -4.3681 38.0745 -23.1054 -2.9773 -4.0641 -1.1453 23.9563 -43.0405 7.4485 -50.0016 4.1024 95.9669 1.0669 34.9931 11.8469 -3.7251 0.8399 -0.2088 7.0689 -40.7750 10.0649 
0.0000 93.1000 0.0000 -17.3161 3.4445 -11.6956 -70.9748 0.0329 88.0101 94.7119 68.3203 -4.1363 -3.9776 18.9546 -1.8660 -175.7613 44.0583 161.7064 -169.8628 82.4359 -159.2754 0.9149 -9.8674 -23.1010 -125.8746 -16.5522 -34.6232 14.6762 -15.2511 -131.8771 0.3382 0.2951 0.0521 -2.4758 6.8674 41.4672 -125.5046 16.4191 56.8192 19.4269 18.0787 129.7106 -0.2334 0.3265 -0.1264 -48.6858 -3.7361 87.3392 -4.2721 37.7294 -22.7995 -3.0311 -3.8206 -1.3380 23.9394 -42.8915 8.0518 -50.4125 4.2398 96.0767 0.7192 35.1794 10.5255 -2.7834 0.8555 -0.1371 7.0328 -40.8164 11.0370 
0.0000 93.1000 0.0000 -17.4060 3.8314 -11.6050 -70.9701 -0.0181 88.0144 93.8448 68.2279 -4.0897 -3.9472 19.0989 -1.9475 -175.6526 43.8344 161.2540 -166.4613 82.1384 -161.4510 1.1834 -10.0836 -23.3213 -126.1316 -16.7238 -34.8312 14.3882 -15.0577 -132.1421 0.3245 0.0429 0.2181 -2.6451 6.9561 41.4640 -125.5585 16.2343 56.9601 18.6265 18.0067 129.7249 -0.0010 0.0203 0.0016 -48.6456 -3.6429 87.0271 -4.1660 37.1286 -23.1300 -3.9076 -3.9534 -0.9440 24.0026 -42.8803 7.8896 -50.3681 4.0614 95.0947 1.0367 35.1486 11.5045 -2.8068 0.4924 -0.2412 7.2041 -40.4287 9.3284 
0.0000 93.1000 0.0000 -17.6730 3.6553 -10.7938 -70.9793 -0.0926 88.0313 94.6526 68.5330 -3.7017 -3.8972 19.1698 -2.2673 -174.2027 43.9172 160.9585 -167.2595 83.0428 -162.2525 1.5331 -10.1533 -22.8887 -125.8963 -16.1694 -34.6540 13.9810 -14.9146 -132.3257 -0.1838 -0.3606 0.4655 -2.7097 6.5888 41.3756 -125.8777 16.1449 56.8273 18.9439 17.9812 129.5914 0.4847 -0.4259 0.2444 -48.5545 -3.7509 86.7353 -3.9915 37.2918 -23.0416 -3.7091 -4.4989 -0.5213 23.1892 -43.0048 7.0005 -50.3218 3.8814 95.7889 1.2449 34.6488 11.0328 -3.9793 0.2764 -0.2876 6.7631 -41.2238 8.1830 
0.0000 93.1000 0.0000 -17.6060 3.2461 -10.6879 -70.9772 -0.0954 88.0334 94.0508 68.6361 -3.8584 -4.2334 19.0988 -2.2944 -175.2459 44.2112 161.7847 -173.4926 82.8362 -155.5553 1.5498 -9.5919 -22.9116 -125.8407 -15.9704 -34.7919 14.1148 -14.9797 -132.5111 -0.3884 -0.3690 0.5187 -2.8541 6.7095 41.1559 -125.8622 15.8489 56.8824 18.9615 17.9390 129.7611 0.5558 -0.4403 0.2298 -49.0178 -3.6244 86.5196 -4.3357 37.0176 -22.8307 -2.9346 -3.6746 -0.6036 23.3366 -43.1247 6.8686 -50.4077 4.0008 96.1793 1.2349 34.3465 11.0127 -3.0691 0.1706 -0.3876 6.2445 -40.4334 9.0088 
0.0000 93.1000 0.0000 -17.2131 3.3021 -11.3450 -70.9900 -0.0974 88.0252 94.7205 68.5709 -4.2101 -4.0358 19.1152 -2.2006 -175.2104 44.2821 162.8919 -175.6048 82.8264 -153.9051 1.4654 -9.4233 -23.3436 -125.7282 -16.3003 -34.8075 15.0087 -15.3046 -132.6550 -0.1534 -0.4104 0.6915 -2.9898 6.7435 41.1622 -125.4726 15.9801 57.0022 18.8056 18.1757 129.6459 0.8167 -0.4790 0.1930 -49.0829 -2.9633 86.7546 -3.9819 36.6646 -23.4149 -2.8299 -3.9276 -0.5886 23.9649 -42.7595 6.6547 -50.3213 4.2610 95.9431 1.9311 34.4713 10.9489 -3.9458 0.4625 -0.3747 6.6508 -41.2956 8.6711 
0.0000 93.1000 0.0000 -17.4067 3.7854 -11.3447 -71.0060 0.3444 87.9818 94.3945 68.4307 -3.3870 -3.4603 19.3852 -1.8444 -175.2331 44.0408 162.2230 -176.3220 82.8265 -153.2845 -0.9696 -9.4598 -22.7844 -125.7651 -16.6134 -34.7425 15.1983 -14.9870 -132.7168 0.6393 1.8105 -1.2114 -3.0151 6.7990 40.8476 -125.2183 15.8521 57.1315 18.9983 18.1158 129.6037 -1.3215 2.0510 -1.0235 -49.0273 -3.6658 86.3477 -3.8697 36.2894 -23.1205 -3.4525 -4.3081 -2.5040 24.0184 -42.8462 6.6676 -50.3779 4.5001 95.9734 1.1070 34.5150 12.0825 -3.5853 0.3299 0.6725 6.6450 -41.2198 8.7940 
0.0000 93.1000 0.0000 -17.9183 3.6272 -11.0862 -71.0938 -0.4717 88.0982 94.4630 68.5970 -4.4737 -3.9122 18.5540 -2.4235 -175.1714 43.7934 164.0112 179.3351 82.8393 -148.3228 3.2601 -9.9568 -23.4590 -125.9047 -15.5972 -34.5074 14.3935 -14.4638 -132.5501 -0.5651 -2.3559 2.2294 -2.9763 7.1868 41.4592 -124.9398 16.2989 57.0966 19.4490 18.0597 129.9721 2.3019 -2.6759 1.3344 -49.1815 -3.5120 86.2254 -3.8996 36.3258 -23.7235 -2.8864 -3.9186 1.0477 24.2701 -43.0429 6.7436 -50.1314 3.9085 94.9726 0.8505 34.7979 10.5604 -3.1290 1.2565 -1.3526 6.4977 -40.6269 9.2786 
0.0000 93.1000 0.0000 -17.8896 3.3496 -11.9602 -71.0129 0.4124 87.9708 94.7878 68.3121 -3.4431 -3.4844 19.2669 -1.5378 -175.0992 43.8445 163.4823 -178.1904 83.0767 -152.6344 -1.5233 -9.9579 -22.3830 -126.9567 -16.2812 -34.6806 14.7674 -15.1432 -132.6291 1.0710 2.1679 -1.2622 -3.1013 6.4260 40.8997 -125.3594 15.5721 56.9092 18.8144 18.0045 129.6703 -1.9177 2.4798 -0.9242 -48.5687 -2.8352 87.7890 -4.1926 36.9926 -22.8608 -3.4291 -3.5834 -2.5636 24.3688 -43.8904 7.9816 -49.9873 4.0733 96.4276 1.2543 34.3483 9.9051 -3.4055 -0.3103 0.7238 6.9854 -41.9397 9.7821 
0.0000 93.1000 0.0000 -17.7660 3.4908 -11.3913 -71.1004 -0.0501 88.0406 94.8554 68.4753 -4.3026 -3.9276 18.6529 -2.1976 -174.9135 43.9606 163.4540 179.4645 83.0080 -149.6636 1.0405 -9.8566 -23.2330 -127.0622 -15.9044 -34.1864 14.2949 -14.4677 -132.4035 -0.2887 -0.1977 0.7194 -2.9601 6.9352 41.4139 -125.2392 16.9637 57.2441 18.9972 17.8562 129.6649 0.3454 -0.2323 0.2480 -48.6510 -2.5347 87.5805 -4.0505 36.9381 -23.5125 -2.9994 -3.7263 -0.7449 24.9020 -43.8601 6.7157 -50.0548 3.9944 95.8009 1.0062 35.0245 9.2850 -3.4152 -0.8425 -0.2003 7.1058 -40.2875 10.5904 
0.0000 93.1000 0.0000 -17.9050 3.3281 -11.8217 -71.1126 0.0572 88.0396 94.4812 68.3886 -3.8190 -3.5713 18.7728 -2.1461 -175.0889 43.8318 163.0348 177.7549 83.0997 -147.4954 0.3797 -9.8589 -22.7819 -125.7305 -16.0101 -34.6014 15.1989 -15.2244 -132.7239 -0.1340 0.3519 -0.0778 -2.9624 6.8658 41.4106 -125.2765 16.2927 56.8228 19.0706 18.1349 129.5996 -0.3676 0.3915 -0.1673 -48.6113 -2.6149 87.5379 -4.5805 37.0700 -22.5166 -2.0969 -3.7438 -1.3340 23.8099 -43.6442 6.0526 -50.2083 3.5392 95.7923 1.2085 34.5908 9.2856 -2.8549 -0.2661 -0.2296 7.0825 -40.7758 11.1322 
